<svg fill="#ffffff" xmlns="http://www.w3.org/2000/svg"  viewBox="0 0 30 30" width="500px" height="500px"><path d="M 17 2 C 14.443 2 12.172031 3.2033125 10.707031 5.0703125 C 10.474031 5.0373125 10.242 5 10 5 C 7.47 5 5.4013594 6.8852187 5.0683594 9.3242188 C 2.5013594 10.198219 0.71210938 12.756547 1.0371094 15.685547 C 1.3781094 18.755547 4.1258437 21 7.2148438 21 L 14 21 L 14 14 C 14 13.448 14.448 13 15 13 C 15.552 13 16 13.448 16 14 L 16 21 L 22.787109 21 C 25.870109 21 28.612938 18.764172 28.960938 15.701172 C 29.292938 12.778172 27.519797 10.222937 24.966797 9.3359375 C 24.628797 5.2289375 21.194 2 17 2 z M 16 21 L 14 21 L 14 26.585938 L 11.707031 24.292969 A 1.0001 1.0001 0 0 0 10.990234 23.990234 A 1.0001 1.0001 0 0 0 10.292969 25.707031 L 14.292969 29.707031 A 1.0001 1.0001 0 0 0 15.707031 29.707031 L 19.707031 25.707031 A 1.0001 1.0001 0 1 0 18.292969 24.292969 L 16 26.585938 L 16 21 z"/></svg>